<svg xmlns="http://www.w3.org/2000/svg" xmlns:xlink="http://www.w3.org/1999/xlink" id="Layer_1" x="0px" y="0px" width="1700.788px" height="283.464px" viewBox="0 0 1700.788 283.464" xml:space="preserve"><g>	<path fill-rule="evenodd" clip-rule="evenodd" fill="#E42313" d="M150.698,94.917c4.854-0.728,9.907,1.763,11.65,6.152  c1.113,2.832,0.669,7.744,0.669,12.539c0,26.021,0,51.145,0,78.039c0,8.008,0.767,12.773-4.409,16.045  c-5.039,3.154-13.994,1.748-16.255-4.648c-1.035-2.871-0.444-7.598-0.444-12.051c0-21.006,0-72.961,0-77.829  c0-4.326-0.61-8.843,0.444-11.875C143.701,97.368,147.06,95.463,150.698,94.917z"></path>	<path fill-rule="evenodd" clip-rule="evenodd" fill="#E42313" d="M225,95.585c0,0,30.552,0,44.849,0  c7.847,0,14.263,0.161,20.005,2.188c9.99,3.516,19.092,12.09,19.995,24.629c0.444,6.128-1.392,12.456-4.609,17.148  c-5.962,8.688-16.299,13.786-30.776,13.62c0.469,1.865,1.699,3.848,2.852,5.928c6.45,11.543,12.861,23.271,19.575,35.381  c1.216,2.207,2.485,4.072,2.427,6.631c-0.225,8.203-11.709,11.885-18.037,6.582c-2.144-1.816-4.082-5.859-5.728-8.818  c-1.714-3.105-3.491-6.426-5.054-9.219c-10.015-18.311-20.83-37.412-30.557-55.607c6.172,0,13.667,0,21.553,0  c11.836,0,23.828,1.763,26.597-6.812c1.724-5.322-1.777-10.054-5.923-11.67c-3.501-1.333-8.433-0.864-13.628-0.864  c-14.204,0-30.098,0-43.54,0C225,108.554,225,95.585,225,95.585z"></path>	<path fill-rule="evenodd" clip-rule="evenodd" fill="#E42313" d="M216.87,24.36c4.854-0.22,11.001,3.071,11.001,9.663  c0,6.318-6.47,9.189-10.112,12.104c-7.627,6.025-15.552,15.303-17.817,26.587c-1.133,5.684-1.357,13.208-0.444,20.649  c1.616,13.145,6.875,22.563,12.764,31.445c5.84,8.857,12.271,17.046,17.568,26.584c5.176,9.355,9.365,19.688,12.095,32.109  c2.749,12.461,3.193,27.227-1.538,38.232c-8.13,19.004-25.439,29.648-46.816,36.074c-2.28,0.693-3.599,1.426-6.592,1.289  c-5.908-0.156-10.049-4.365-10.112-9.414c-0.059-3.77,1.982-6.191,3.945-7.734c3.398-2.588,8.916-3.184,13.188-4.805  c14.233-5.381,28.35-14.893,29.019-34.307c0.181-4.883-0.566-10.146-1.538-14.717c-2.773-13.301-7.964-24.58-14.272-34.297  c-13.032-20.061-28.984-36.115-29.468-67.702c-0.161-10.459,1.255-20.142,4.609-27.7c5.664-12.7,14.922-22.778,26.167-30.562  C211.103,26.083,212.91,24.521,216.87,24.36z"></path>	<path fill="#E42313" d="M338.208,95.424h11.079v64.465h-11.079V95.424z"></path>	<path fill="#E42313" d="M358.847,95.424h13.291l18.496,48.271h0.166V95.424h10.132v64.465h-13.145l-18.56-48.425h-0.166v48.425  h-10.215V95.424z"></path>	<path fill="#E42313" d="M409.814,146.847c2.104,1.475,6.836,4.102,12.554,4.102c4.043,0,8.535-2.71,8.535-8.894  c0-4.609-2.241-6.367-7.461-9.502l-5.459-3.32c-5.806-3.516-9.404-8.853-9.404-17.188c0-11.523,8.652-17.534,18.506-17.534  c6.201,0,10.596,1.763,12.271,2.305l-0.503,10.259c-2.612-1.094-6.064-2.754-11.025-2.754c-5.376,0-7.861,2.754-7.861,7.183  c0,4.79,2.646,6.367,5.947,8.389l6.284,3.882c6.899,4.248,10.176,8.599,10.176,17.637c0,13.098-8.477,19.387-19.658,19.387  c-5.889,0-10.435-0.908-13.369-2.852L409.814,146.847z"></path>	<path fill="#E42313" d="M458.466,105.292h-12.939v-9.868h36.826v9.868h-12.686v54.597h-11.201V105.292z"></path>	<path fill="#E42313" d="M517.148,105.292h-12.915v-9.868h36.826v9.868h-12.686v54.597h-11.226V105.292z"></path>	<path fill="#E42313" d="M603.486,105.292h-12.949v-9.868h36.826v9.868h-12.676v54.597h-11.201V105.292z"></path>	<path fill="#E42313" d="M487.895,95.424h11.079v64.465h-11.079V95.424z"></path>	<path fill="#E42313" d="M557.089,95.424v41.318c0,10.69,2.51,14.206,8.799,14.206c6.123,0,8.672-3.516,8.672-14.206V95.424h11.187  v41.738c0,16.984-8.882,23.635-19.858,23.635c-11.064,0-19.937-6.65-19.937-23.635V95.424H557.089z"></path>	<path fill="#E42313" d="M653.593,94.375c12.095,0,23.199,10.029,23.199,33.306c0,23.293-11.104,33.313-23.199,33.313  c-12.075,0-23.174-10.02-23.174-33.313C630.419,104.404,641.518,94.375,653.593,94.375z M653.608,151.417  c6.499,0,11.714-6.262,11.714-23.693s-5.215-23.701-11.714-23.701c-6.509,0-11.724,6.27-11.724,23.701  S647.099,151.417,653.608,151.417z"></path></g><path fill="#575756" d="M811.758,146.847c2.08,1.475,6.836,4.102,12.554,4.102c4.043,0,8.53-2.71,8.53-8.894 c0-4.609-2.236-6.367-7.456-9.502l-5.459-3.32c-5.806-3.516-9.409-8.853-9.409-17.188c0-11.523,8.657-17.534,18.486-17.534 c6.226,0,10.596,1.763,12.275,2.305l-0.508,10.259c-2.588-1.094-6.045-2.754-11.001-2.754c-5.381,0-7.886,2.754-7.886,7.183 c0,4.79,2.671,6.367,5.942,8.389l6.313,3.882c6.899,4.248,10.171,8.599,10.171,17.637c0,13.098-8.491,19.387-19.678,19.387 c-5.879,0-10.41-0.908-13.359-2.852L811.758,146.847z"></path><path fill="#575756" d="M1102.268,146.847c2.1,1.475,6.846,4.102,12.588,4.102c4.043,0,8.486-2.71,8.486-8.894 c0-4.609-2.217-6.367-7.441-9.502l-5.469-3.32c-5.771-3.516-9.414-8.853-9.414-17.188c0-11.523,8.662-17.534,18.525-17.534 c6.23,0,10.596,1.763,12.295,2.305l-0.518,10.259c-2.637-1.094-6.064-2.754-11.045-2.754c-5.342,0-7.852,2.754-7.852,7.183 c0,4.79,2.676,6.367,5.957,8.389l6.26,3.882c6.924,4.248,10.186,8.599,10.186,17.637c0,13.098-8.486,19.387-19.648,19.387 c-5.908,0-10.439-0.908-13.398-2.852L1102.268,146.847z"></path><path fill="#575756" d="M872.2,146.847c2.08,1.475,6.855,4.102,12.568,4.102c4.072,0,8.525-2.71,8.525-8.894 c0-4.609-2.266-6.367-7.441-9.502l-5.498-3.32c-5.781-3.516-9.385-8.853-9.385-17.188c0-11.523,8.652-17.534,18.525-17.534 c6.221,0,10.596,1.763,12.256,2.305l-0.527,10.259c-2.588-1.094-6.025-2.754-11.006-2.754c-5.371,0-7.842,2.754-7.842,7.183 c0,4.79,2.666,6.367,5.898,8.389l6.309,3.882c6.875,4.248,10.195,8.599,10.195,17.637c0,13.098-8.496,19.387-19.658,19.387 c-5.898,0-10.43-0.908-13.379-2.852L872.2,146.847z"></path><path fill="#575756" d="M921.116,105.292h-12.939v-9.868h36.797v9.868h-12.695v54.597h-11.162V105.292z"></path><path fill="#575756" d="M1420.374,105.292h-12.939v-9.868h36.846v9.868h-12.666v54.597h-11.24V105.292z"></path><path fill="#575756" d="M852.039,95.424h11.069v64.465h-11.069V95.424z"></path><path fill="#575756" d="M1285.618,94.375c12.08,0,23.213,10.029,23.213,33.306c0,23.293-11.133,33.313-23.213,33.313 c-12.051,0-23.184-10.02-23.184-33.313C1262.434,104.404,1273.567,94.375,1285.618,94.375z M1285.618,151.417 c6.504,0,11.729-6.262,11.729-23.693s-5.225-23.701-11.729-23.701c-6.475,0-11.729,6.27-11.729,23.701 S1279.143,151.417,1285.618,151.417z"></path><path fill="#575756" d="M1381.145,94.375c12.1,0,23.184,10.029,23.184,33.306c0,23.293-11.084,33.313-23.184,33.313 s-23.184-10.02-23.184-33.313C1357.961,104.404,1369.045,94.375,1381.145,94.375z M1381.145,151.417 c6.514,0,11.729-6.262,11.729-23.693s-5.215-23.701-11.729-23.701c-6.504,0-11.729,6.27-11.729,23.701 S1374.641,151.417,1381.145,151.417z"></path><path fill="#575756" d="M703.281,95.424h15.225c18.247,0,27.93,10.923,27.93,32.231c0,21.701-11.704,32.233-27.93,32.233h-15.225 V95.424z M714.341,150.382h3.462c11.548,0,16.768-8.854,16.768-22.727c0-13.867-5.22-22.725-16.768-22.725h-3.462V150.382z"></path><path fill="#575756" d="M753.794,95.424h30.898v9.868h-19.79v16.582h18.643v9.707h-18.643v18.42h20.679v9.888h-31.787V95.424z"></path><path fill="#575756" d="M950.12,95.424h30.869v9.868h-19.756v16.582h18.604v9.707h-18.604v18.42h20.625v9.888H950.12V95.424z"></path><path fill="#575756" d="M1162.004,95.424h30.898v9.868h-19.766v16.582h18.633v9.707h-18.633v18.42h20.664v9.888h-31.797V95.424z"></path><path fill="#575756" d="M1034.885,109.052h-0.186l-13.838,50.837h-8.086l-13.184-50.852h-0.166v50.852h-10.029V95.424h16.338 l11.494,46.953h0.156l11.846-46.953h15.732v64.465h-10.078V109.052z"></path><path fill="#575756" d="M1083.547,144.565h-19.219l-4.15,15.324h-11.25l19.658-64.465h11.729l18.848,64.465h-11.533 L1083.547,144.565z M1081.233,135.019l-6.904-28.794h-0.156l-7.578,28.794H1081.233z"></path><path fill="#575756" d="M1543.411,144.565h-19.17l-4.199,15.324h-11.211l19.619-64.465h11.729l18.877,64.465h-11.514 L1543.411,144.565z M1541.155,135.019l-6.963-28.794h-0.156l-7.529,28.794H1541.155z"></path><path fill="#575756" d="M1220.325,95.424h18.33c10.439,0,17.52,5.176,17.52,16.987c0,8.413-4.365,14.194-10.918,15.288l0,0 c2.188,0.361,4.209,1.616,6.016,7.627l7.656,24.563h-11.895l-5.674-20.744c-1.406-5.098-4.326-6.753-8.281-6.753h-1.67v27.497 h-11.084V95.424z M1235.374,123.369c5.498,0,9.297-3.13,9.297-9.478c0-7.144-3.477-8.921-9.297-8.921h-3.965v18.398H1235.374z"></path><path fill="#575756" d="M1316.438,95.424h16.338c12.051,0,18.311,4.99,18.311,15.894c0,9.385-5.205,13.306-9.092,14.868v0.176 c4.531,1.118,10.43,4.614,10.43,15.41c0,11.73-7.764,18.117-18.193,18.117h-17.793V95.424z M1327.19,122.221h5.176 c4.971,0,7.881-4.189,7.881-9.258c0-5.244-3.271-8.359-8.115-8.359h-4.941V122.221z M1327.19,150.451h5.664 c5.498,0,8.574-3.76,8.574-9.567c0-5.459-2.588-9.585-8.896-9.585h-5.342V150.451z"></path><path fill="#575756" d="M1381.545,79.086h10.195l-8.984,13.848h-6.787L1381.545,79.086z"></path><path fill="#575756" d="M1449.651,95.424h11.328v64.465h-11.328V95.424z"></path><path fill="#575756" d="M1507.747,158.493c-2.207,1.299-7.412,2.305-12.715,2.305c-17.715,0-26.855-14.294-26.855-33.142 c0-18.843,9.141-33.145,26.533-33.145c5.986,0,10.83,1.763,13.037,2.695l-0.615,11.104c-2.188-1.196-5.635-3.501-11.055-3.501 c-8.896,0-16.016,6.147-16.016,22.847c0,16.704,7.119,22.849,16.016,22.849c5.186,0,8.623-1.372,11.055-3.315L1507.747,158.493z"></path><path fill="#575756" d="M338.168,180.172h6.162v17.734c0,5.225,1.655,8.652,6.372,8.652c4.692,0,6.367-3.428,6.367-8.652v-17.734 h6.147v19.639c0,8.203-4.653,11.572-12.515,11.572c-7.871,0-12.534-3.369-12.534-11.572V180.172z"></path><path fill="#575756" d="M366.518,180.172h7.563l11.704,22.959h0.078v-22.959h5.889v30.674h-7.505l-11.748-22.92h-0.078v22.92h-5.903 V180.172z"></path><path fill="#575756" d="M394.746,180.172h6.172v30.674h-6.172V180.172z"></path><path fill="#575756" d="M401.079,180.172h6.592l7.886,24.092h0.083l7.778-24.092h6.108l-10.327,30.674h-7.563L401.079,180.172z"></path><path fill="#575756" d="M430.239,180.172h18.091v4.834h-11.943v7.559h10.933v4.854h-10.933v8.623h12.051v4.805h-18.198V180.172z"></path><path fill="#575756" d="M450.839,180.172h6.655c6.592,0,14.463-0.225,14.463,8.32c0,3.584-2.427,6.582-6.333,7.109v0.088 c1.685,0.156,2.627,1.807,3.262,3.154l4.907,12.002h-6.851l-3.706-9.58c-0.864-2.266-1.655-3.154-4.243-3.154h-1.982v12.734h-6.172 V180.172z M457.011,193.258h2.021c3.032,0,6.514-0.4,6.514-4.248c0-3.672-3.438-4.004-6.514-4.004h-2.021V193.258z"></path><path fill="#575756" d="M491.425,185.817c-1.938-0.859-4.082-1.338-6.24-1.338c-2.104,0-4.839,0.938-4.839,4.248 c0,5.342,13.452,3.105,13.452,13.379c0,6.719-5.322,9.277-11.509,9.277c-3.335,0-4.829-0.41-7.866-1.182l0.566-5.537 c2.104,1.133,4.531,1.895,6.934,1.895c2.344,0,5.459-1.162,5.459-3.965c0-5.859-13.442-3.428-13.442-13.584 c0-6.846,5.313-9.355,10.718-9.355c2.646,0,5.098,0.342,7.334,1.104L491.425,185.817z"></path><path fill="#575756" d="M495.551,180.172h6.172v30.674h-6.172V180.172z"></path><path fill="#575756" d="M505.014,180.172h8.398c9.399,0,17.715,3.174,17.715,15.352c0,12.168-8.315,15.322-17.715,15.322h-8.398 V180.172z M511.162,206.042h3.438c5.137,0,10.112-3.848,10.112-10.518c0-6.68-4.976-10.518-10.112-10.518h-3.438V206.042z"></path><path fill="#575756" d="M542.246,180.172h6.958l12.051,30.674h-6.812l-2.651-6.992H539.36l-2.695,6.992h-6.362L542.246,180.172z  M545.644,186.334h-0.098L541.113,199h8.965L545.644,186.334z"></path><path fill="#575756" d="M561.904,180.172h8.394c9.424,0,17.729,3.174,17.729,15.352c0,12.168-8.306,15.322-17.729,15.322h-8.394 V180.172z M568.076,206.042h3.413c5.137,0,10.107-3.848,10.107-10.518c0-6.68-4.971-10.518-10.107-10.518h-3.413V206.042z"></path><path fill="#575756" d="M590.356,180.172h18.12v4.834h-11.973v7.559h10.947v4.854h-10.947v8.623h12.056v4.805h-18.203V180.172z"></path><path fill="#575756" d="M620.429,180.172h8.389c9.409,0,17.715,3.174,17.715,15.352c0,12.168-8.306,15.322-17.715,15.322h-8.389 V180.172z M626.577,206.042h3.438c5.137,0,10.112-3.848,10.112-10.518c0-6.68-4.976-10.518-10.112-10.518h-3.438V206.042z"></path><path fill="#575756" d="M648.876,180.172h18.105v4.834h-11.958v7.559h10.947v4.854h-10.947v8.623h12.061v4.805h-18.208V180.172z"></path><path fill="#575756" d="M701.274,210.407c-2.236,0.566-4.648,0.977-6.997,0.977c-9.922,0-16.821-4.941-16.821-15.342 c0-10.518,6.416-16.387,16.821-16.387c2.026,0,4.717,0.371,6.958,1.26l-0.444,5.176c-2.319-1.289-4.424-1.611-6.631-1.611 c-6.328,0-10.288,4.854-10.288,11.123c0,6.23,3.857,10.957,10.405,10.957c2.427,0,5.283-0.518,6.738-1.299L701.274,210.407z"></path><path fill="#575756" d="M716.064,179.655c9.624,0,15.024,6.484,15.024,15.791c0,9.248-5.322,15.938-15.024,15.938 c-9.854,0-15.049-6.553-15.049-15.938C701.016,186.012,706.289,179.655,716.064,179.655z M716.064,206.559 c6.265,0,8.613-5.586,8.613-11.113c0-5.42-2.51-10.967-8.613-10.967c-6.133,0-8.643,5.547-8.643,10.967 C707.422,200.973,709.771,206.559,716.064,206.559z"></path><path fill="#575756" d="M732.886,180.172h6.172v30.674h-6.172V180.172z"></path><path fill="#575756" d="M742.349,180.172h9.854l7.295,23.281h0.083l7.305-23.281h9.844v30.674h-5.884v-25.322h-0.103l-8.267,25.322 h-5.889l-8.267-25.322l-0.083,0.137v25.186h-5.889V180.172z"></path><path fill="#575756" d="M780.552,180.172h10.718c3.965,0,9.907,1.152,9.907,7.861c0,3.691-2.466,6.201-6.123,6.875v0.088 c4.185,0.4,7.036,3.203,7.036,7.002c0,7.715-6.938,8.848-10.82,8.848h-10.718V180.172z M786.699,192.565h2.51 c2.612,0,5.806-0.566,5.806-3.721c0-3.555-3.115-3.838-5.928-3.838h-2.388V192.565z M786.699,206.042h2.91 c2.856,0,6.333-0.732,6.333-4.287c0-3.965-3.257-4.609-6.333-4.609h-2.91V206.042z"></path><path fill="#575756" d="M803.589,180.172h6.631c6.611,0,14.478-0.225,14.478,8.32c0,3.584-2.427,6.582-6.333,7.109v0.088 c1.66,0.156,2.632,1.807,3.262,3.154l4.907,12.002h-6.851l-3.701-9.58c-0.869-2.266-1.66-3.154-4.263-3.154h-1.968v12.734h-6.162 V180.172z M809.751,193.258h2.021c3.032,0,6.494-0.4,6.494-4.248c0-3.672-3.418-4.004-6.494-4.004h-2.021V193.258z"></path><path fill="#575756" d="M836.47,180.172h6.953l12.053,30.674h-6.816l-2.646-6.992h-12.439l-2.686,6.992h-6.377L836.47,180.172z  M839.863,186.334h-0.103L835.337,199h8.95L839.863,186.334z"></path><g></g><g></g><g></g><g></g><g></g><g></g></svg>